<svg width="24" height="24" viewBox="0 0 24 24" fill="none" xmlns="http://www.w3.org/2000/svg">
<path d="M23.1429 13.7144L16.08 23.1429L11.3657 19.6115" stroke="white" stroke-width="1.5" stroke-linecap="round" stroke-linejoin="round"/>
<path d="M8.57101 8.57146C10.7013 8.57146 12.4282 6.84456 12.4282 4.71432C12.4282 2.58408 10.7013 0.857178 8.57101 0.857178C6.44077 0.857178 4.71387 2.58408 4.71387 4.71432C4.71387 6.84456 6.44077 8.57146 8.57101 8.57146Z" stroke="white" stroke-width="1.5" stroke-linecap="round" stroke-linejoin="round"/>
<path d="M5.14265 21.4286H0.856934V18.8572C0.858275 17.3324 1.31144 15.8422 2.15918 14.5749C3.00693 13.3075 4.21124 12.3198 5.62001 11.7365C7.02877 11.1532 8.5788 11.0004 10.0743 11.2975C11.5699 11.5946 12.9438 12.3282 14.0226 13.4057" stroke="white" stroke-width="1.5" stroke-linecap="round" stroke-linejoin="round"/>
</svg>
