<svg width="24" height="24" viewBox="0 0 24 24" fill="none" xmlns="http://www.w3.org/2000/svg">
<path d="M2.57122 4.28571C2.11656 4.28571 1.68053 4.46632 1.35904 4.78781C1.03755 5.1093 0.856934 5.54533 0.856934 5.99999V21.4286C0.856934 21.8832 1.03755 22.3193 1.35904 22.6407C1.68053 22.9622 2.11656 23.1428 2.57122 23.1428H21.4284C21.883 23.1428 22.3191 22.9622 22.6405 22.6407C22.962 22.3193 23.1426 21.8832 23.1426 21.4286V5.99999C23.1426 5.54533 22.962 5.1093 22.6405 4.78781C22.3191 4.46632 21.883 4.28571 21.4284 4.28571H17.9998" stroke="#3F3F46" stroke-width="1.5" stroke-linecap="round" stroke-linejoin="round"/>
<path d="M6 0.857147V7.71429" stroke="#3F3F46" stroke-width="1.5" stroke-linecap="round" stroke-linejoin="round"/>
<path d="M18 0.857147V7.71429" stroke="#3F3F46" stroke-width="1.5" stroke-linecap="round" stroke-linejoin="round"/>
<path d="M6 4.28571H14.5714" stroke="#3F3F46" stroke-width="1.5" stroke-linecap="round" stroke-linejoin="round"/>
<path d="M16.2853 13.7143H7.71387" stroke="#3F3F46" stroke-width="1.5" stroke-linecap="round" stroke-linejoin="round"/>
<path d="M12 9.42859V18" stroke="#3F3F46" stroke-width="1.5" stroke-linecap="round" stroke-linejoin="round"/>
</svg>
