<svg width="25" height="24" viewBox="0 0 25 24" fill="none" xmlns="http://www.w3.org/2000/svg">
<g clip-path="url(#clip0_1510_1389)">
<path d="M6.25586 12.6051V8.28967C6.26888 7.44139 6.45178 6.60398 6.79409 5.82542C7.1364 5.04685 7.63139 4.34244 8.25069 3.75254C8.86999 3.16264 9.60144 2.69885 10.4031 2.38773C11.2048 2.07662 12.061 1.92431 12.9225 1.93951V1.93951C13.7841 1.92431 14.6403 2.07662 15.4419 2.38773C16.2436 2.69885 16.9751 3.16264 17.5944 3.75254C18.2137 4.34244 18.7087 5.04685 19.051 5.82542C19.3933 6.60398 19.5762 7.44139 19.5892 8.28967V12.6051" stroke="white" stroke-width="1.5" stroke-linecap="round" stroke-linejoin="round"/>
<path d="M3.85586 9.93848H5.45586C5.66803 9.93848 5.87152 10.0263 6.02154 10.1826C6.17157 10.3388 6.25586 10.5508 6.25586 10.7718V15.7718C6.25586 15.9928 6.17157 16.2048 6.02154 16.3611C5.87152 16.5173 5.66803 16.6051 5.45586 16.6051H3.85586C3.43151 16.6051 3.02455 16.4295 2.72449 16.117C2.42443 15.8044 2.25586 15.3805 2.25586 14.9385V11.6051C2.25586 11.1631 2.42443 10.7392 2.72449 10.4266C3.02455 10.1141 3.43151 9.93848 3.85586 9.93848V9.93848Z" stroke="white" stroke-width="1.5" stroke-linecap="round" stroke-linejoin="round"/>
<path d="M21.9894 16.605H20.3894C20.1772 16.605 19.9737 16.5172 19.8237 16.3609C19.6736 16.2046 19.5894 15.9927 19.5894 15.7716V10.7716C19.5894 10.5506 19.6736 10.3387 19.8237 10.1824C19.9737 10.0261 20.1772 9.93831 20.3894 9.93831H21.9894C22.4137 9.93831 22.8207 10.1139 23.1207 10.4265C23.4208 10.739 23.5894 11.163 23.5894 11.605V14.9383C23.5894 15.3803 23.4208 15.8043 23.1207 16.1168C22.8207 16.4294 22.4137 16.605 21.9894 16.605V16.605Z" stroke="white" stroke-width="1.5" stroke-linecap="round" stroke-linejoin="round"/>
<path d="M15.5894 20.6051C16.6502 20.6051 17.6676 20.2746 18.4178 19.6863C19.1679 19.0979 19.5894 18.2999 19.5894 17.4679V13.9385" stroke="white" stroke-width="1.5" stroke-linecap="round" stroke-linejoin="round"/>
<path d="M15.5892 21.272C15.5892 21.8024 15.4136 22.3111 15.101 22.6862C14.7885 23.0613 14.3646 23.272 13.9225 23.272H11.9225C11.4805 23.272 11.0566 23.0613 10.744 22.6862C10.4315 22.3111 10.2559 21.8024 10.2559 21.272C10.2559 20.7415 10.4315 20.2328 10.744 19.8578C11.0566 19.4827 11.4805 19.272 11.9225 19.272H13.9225C14.3646 19.272 14.7885 19.4827 15.101 19.8578C15.4136 20.2328 15.5892 20.7415 15.5892 21.272Z" stroke="white" stroke-width="1.5" stroke-linecap="round" stroke-linejoin="round"/>
</g>
<defs>
<clipPath id="clip0_1510_1389">
<rect width="24" height="24" fill="white" transform="translate(0.922852)"/>
</clipPath>
</defs>
</svg>
