<svg width="18" height="19" viewBox="0 0 18 19" fill="none" xmlns="http://www.w3.org/2000/svg">
<g clip-path="url(#clip0_1510_1092)">
<path d="M8.99984 14.6428L14.8884 8.86997C15.1275 8.63115 15.3172 8.34755 15.4466 8.03538C15.576 7.72322 15.6426 7.38861 15.6426 7.05068C15.6426 6.71275 15.576 6.37814 15.4466 6.06598C15.3172 5.75381 15.1275 5.47021 14.8884 5.23139L13.2684 3.61139C13.0296 3.37231 12.746 3.18265 12.4338 3.05324C12.1217 2.92384 11.7871 2.85723 11.4491 2.85723C11.1112 2.85723 10.7766 2.92384 10.4644 3.05324C10.1523 3.18265 9.86866 3.37231 9.62984 3.61139L3.85698 9.49997" stroke="#3F3F46" stroke-linecap="round" stroke-linejoin="round"/>
<path d="M4.5 17.8572L0.642857 14" stroke="#3F3F46" stroke-linecap="round" stroke-linejoin="round"/>
<path d="M6.42822 12.0716L2.57108 15.9287" stroke="#3F3F46" stroke-linecap="round" stroke-linejoin="round"/>
<path d="M14.0784 4.42139L17.3569 1.14282" stroke="#3F3F46" stroke-linecap="round" stroke-linejoin="round"/>
<path d="M10.9282 16.5715L1.92822 7.57153" stroke="#3F3F46" stroke-linecap="round" stroke-linejoin="round"/>
</g>
<defs>
<clipPath id="clip0_1510_1092">
<rect width="18" height="18" fill="white" transform="matrix(-1 0 0 -1 18 18.5)"/>
</clipPath>
</defs>
</svg>
