<svg width="197" height="40" viewBox="0 0 197 40" fill="none" xmlns="http://www.w3.org/2000/svg">
<g clip-path="url(#clip0_1510_1019)">
<path fill-rule="evenodd" clip-rule="evenodd" d="M24.7409 20.4027C24.6849 20.1842 24.4985 19.8815 24.4179 19.7836C24.3533 19.7202 24.288 19.6125 24.2511 19.4759L24.2585 19.3061L24.3225 18.0058L24.3256 17.9867C24.352 17.7947 24.4843 16.8125 24.4843 16.2981C24.4843 15.7898 24.1613 15.1147 24.0929 14.9781C24.2099 13.9941 24.1416 12.4162 24.1342 12.2888C24.1477 12.2033 24.2388 11.5368 24.2388 11.2759C24.2388 11.0181 24.2388 10.5861 23.8585 10.0015C23.4573 9.38362 22.8751 9.33131 22.2689 9.33131C22.2671 9.33131 22.2653 9.33131 22.264 9.33131C22.1656 9.31716 21.4173 8.94669 20.8886 8.67592L20.9089 8.00023C21.0259 7.84023 21.0333 7.77746 21.0357 7.75654C21.0419 7.70669 21.0776 7.44515 21.1145 7.16823L21.1151 7.16269C21.2806 7.08392 21.4043 6.86854 21.4308 6.75469C21.4357 6.73254 21.4425 6.70854 21.448 6.68331C21.5034 6.46362 21.5656 6.21315 21.4179 6.13623C21.4049 6.12946 21.3914 6.12392 21.3779 6.12085C21.4197 5.91654 21.4413 5.63654 21.3594 5.12762C21.2646 4.53808 20.5176 4.33008 19.9083 4.33008H19.8905C19.2696 4.33008 18.52 4.53931 18.4554 5.13192C18.4074 5.57439 18.4 5.90054 18.432 6.12146C18.4197 6.12515 18.4062 6.13008 18.3945 6.13623C18.2462 6.21315 18.3083 6.46362 18.3637 6.68331C18.3693 6.70854 18.376 6.73254 18.3809 6.75469C18.4099 6.88269 18.5366 7.08085 18.6886 7.159L18.6899 7.17192C18.728 7.447 18.7631 7.70669 18.7686 7.75654C18.7729 7.79346 18.7902 7.83654 18.8228 7.89254L18.8597 8.67716C18.3311 8.94792 17.5834 9.31777 17.4899 9.33192C16.8769 9.33192 16.2936 9.383 15.8905 10.0021C15.5096 10.5873 15.5096 11.0187 15.5096 11.2765C15.5096 11.5368 15.6013 12.2039 15.6136 12.2895C15.6074 12.4168 15.5391 13.9947 15.6554 14.9787C15.5865 15.1147 15.264 15.7898 15.264 16.2987C15.264 16.8132 15.3969 17.7959 15.4228 17.9873L15.4253 18.0064L15.4954 19.4144V19.4144C15.4628 19.5805 15.3877 19.711 15.3133 19.7848C15.2314 19.8827 15.0462 20.1855 14.9908 20.4039C14.9114 20.7498 14.576 21.2888 14.5945 21.375C14.6542 21.4876 14.7551 21.5288 14.8462 21.4747C14.9459 21.407 15.1779 21.1627 15.2086 21.0415C15.2529 21.191 15.4449 22.2741 15.5194 22.4058C15.5459 22.5282 15.6265 22.6384 15.7188 22.6408C15.8037 22.6107 15.8554 22.5707 15.8554 22.5707C15.8813 22.6907 15.9268 22.8402 16.0923 22.8495C16.1729 22.8365 16.2062 22.7787 16.2 22.6999C16.2634 22.7208 16.4209 22.6765 16.4646 22.5633C16.5009 22.4648 16.5256 22.3393 16.536 22.2759C16.5348 22.2587 16.5403 22.2525 16.536 22.2759C16.5385 22.3005 16.5649 22.3313 16.6259 22.3344C16.6874 22.3258 16.7348 22.2888 16.7557 22.0599C16.7699 21.9141 16.7668 21.4815 16.7619 21.4593C16.7569 21.4372 16.7342 21.1227 16.7256 20.9756C16.7686 20.8064 16.7446 20.2741 16.7231 20.1768C16.6991 20.0673 16.6585 19.9842 16.5194 19.7633C16.5323 19.5744 16.5366 19.4181 16.5391 19.3578C16.5434 19.3018 16.5477 19.2421 16.5496 19.1947C16.5625 18.9492 16.5809 18.695 16.5834 18.6439C16.6068 18.5658 16.6536 18.4495 16.7089 18.3147C16.8757 17.9085 17.1293 17.2925 17.1182 16.7116C17.1108 16.2802 17.0991 15.9196 17.0923 15.7442C17.088 15.6187 17.0831 15.5178 17.0806 15.4488C17.0776 15.4095 17.0769 15.3768 17.0726 15.351L17.0751 15.3332C17.1169 14.9498 17.1969 14.2064 17.2296 13.6772C17.3428 14.0002 17.5157 14.4273 17.7459 14.8156C17.7453 15.3701 17.7286 15.7215 17.7157 16.0039C17.7065 16.1793 17.7003 16.3208 17.6991 16.4655C17.6228 16.5818 17.3059 17.1196 17.3022 17.9172C17.176 18.3787 17.0474 18.8919 17.0406 19.2101V19.2144V19.2175C17.0437 19.2513 17.2757 22.5953 17.5274 23.4876C17.5729 23.647 17.6259 23.8218 17.6813 24.0058C17.9022 24.7405 18.1773 25.655 18.1557 26.2027C18.1477 26.4279 18.0825 26.6212 18.008 26.8445C17.8585 27.287 17.6899 27.7904 17.8917 28.7424C18.0579 29.5233 18.1705 29.8673 18.2788 30.2015C18.368 30.479 18.4536 30.7405 18.5674 31.2353C18.6173 31.4513 18.6579 31.6279 18.6923 31.7756C18.8253 32.3461 18.8542 32.4685 18.8573 32.6728C18.8129 32.703 18.7483 32.7559 18.7059 32.8341C18.6634 32.9116 18.6616 33.031 18.7053 33.1165C18.6197 33.1959 18.5231 33.2741 18.4665 33.3116C18.3902 33.3658 18.2776 33.4845 18.248 33.5178C18.1994 33.5553 18.1797 33.6138 18.1705 33.6575C18.1225 33.6888 18.0936 33.7344 18.0923 33.7898C18.0905 33.8667 18.1428 33.9412 18.2166 33.9713C18.2616 33.9879 18.3096 33.991 18.3459 33.9842C18.3742 34.0002 18.4148 34.0125 18.4726 34.0175C18.5379 34.0242 18.584 34.0162 18.6197 34.0045C18.6456 34.0193 18.6819 34.0279 18.7293 34.0279C18.8025 34.0279 18.8548 34.0156 18.8923 33.9972C18.9256 34.0236 18.9705 34.0439 19.0326 34.0439H19.0493C19.1822 34.0439 19.2689 34.007 19.3213 33.9676C19.3822 34.0095 19.4843 34.0482 19.6616 34.0316C19.7539 34.023 19.8246 34.0008 19.8733 33.9676C19.9225 34.0015 19.9926 34.0236 20.0862 34.0316C20.2628 34.0476 20.3649 34.0095 20.4265 33.9676C20.4794 34.007 20.5643 34.0439 20.6979 34.0439H20.7133C20.7748 34.0439 20.8216 34.0236 20.8542 33.9972C20.8917 34.0156 20.9446 34.0279 21.0148 34.0279H21.0222C21.0677 34.0279 21.1022 34.0193 21.128 34.0045C21.1637 34.0168 21.2099 34.0236 21.2733 34.0175C21.3305 34.0125 21.3717 34.0008 21.3994 33.9842C21.4357 33.9916 21.4862 33.9885 21.5305 33.9713C21.6037 33.9412 21.6566 33.8667 21.6548 33.7898C21.6529 33.7344 21.624 33.6888 21.5754 33.6575C21.5674 33.6144 21.5471 33.5553 21.4985 33.5178C21.4696 33.4845 21.3569 33.3658 21.2806 33.3116C21.2246 33.2735 21.128 33.1959 21.0425 33.1165C21.0862 33.031 21.0849 32.9116 21.0419 32.8341C20.9988 32.7559 20.9348 32.703 20.8899 32.6728C20.8936 32.4685 20.9219 32.3461 21.0554 31.7756C21.0899 31.6279 21.1311 31.4513 21.1816 31.2353C21.2942 30.7405 21.3797 30.479 21.4702 30.2015C21.5791 29.8673 21.6905 29.5227 21.8554 28.7424C22.0579 27.7904 21.8893 27.287 21.7403 26.8445C21.6659 26.6212 21.6006 26.4279 21.592 26.2027C21.5711 25.6544 21.8456 24.7405 22.0671 24.0058C22.1225 23.8218 22.1748 23.647 22.2197 23.4876C22.4733 22.5953 22.704 19.2507 22.7059 19.2175V19.2144V19.2101C22.6991 18.8919 22.5711 18.3787 22.4449 17.9172C22.4419 17.1202 22.1243 16.5824 22.048 16.4655C22.0474 16.3208 22.0406 16.1793 22.032 16.0039C22.0185 15.7215 22.0013 15.3701 22.0006 14.8156C22.232 14.4273 22.4043 14.0002 22.5169 13.6772C22.5502 14.2064 22.6296 14.9498 22.672 15.3332L22.6739 15.351C22.6696 15.3768 22.6689 15.4095 22.6665 15.4488C22.664 15.5178 22.6597 15.6187 22.6542 15.7442C22.6493 15.9196 22.6363 16.2802 22.6289 16.7116C22.6173 17.2925 22.8708 17.9085 23.0376 18.3147C23.0923 18.4488 23.1403 18.5658 23.1637 18.6439C23.1662 18.7042 23.1809 19.0267 23.1877 19.2968C23.1902 19.3756 23.192 19.5116 23.192 19.5116L23.1951 19.5135C23.1982 19.5842 23.2019 19.6698 23.2086 19.7633C23.0689 19.9842 23.0277 20.0673 23.0056 20.1768C22.984 20.2741 22.9594 20.8064 23.0025 20.9756C22.9933 21.1227 22.9717 21.4372 22.9668 21.4593C22.9619 21.4808 22.9588 21.9135 22.9723 22.0599C22.9939 22.2888 23.0419 22.3264 23.1028 22.3344C23.1637 22.3313 23.1902 22.3005 23.192 22.2759C23.1877 22.2525 23.1933 22.2587 23.192 22.2759C23.2037 22.3393 23.2277 22.4648 23.2634 22.5633C23.3077 22.6765 23.4665 22.7208 23.528 22.6999C23.5219 22.7787 23.5545 22.8372 23.6357 22.8495C23.8031 22.8402 23.848 22.6907 23.8733 22.5707C23.8733 22.5707 23.9256 22.6107 24.0099 22.6408C24.1016 22.6384 24.1828 22.5282 24.2086 22.4058C24.2831 22.2741 24.4745 21.191 24.52 21.0415C24.5508 21.1627 24.7834 21.407 24.8831 21.4747C24.9736 21.5288 25.0745 21.4876 25.1342 21.375C25.1551 21.2882 24.8203 20.7485 24.7409 20.4027ZM19.8259 23.6218C19.8259 23.6175 19.8456 23.375 19.8708 23.0938L19.9237 23.6199C19.9428 23.9873 19.912 24.447 19.8745 24.8575C19.8382 24.447 19.8074 23.9873 19.8259 23.6218ZM19.9705 33.3467C19.9791 33.3818 19.9299 33.4772 19.8806 33.5412C19.8788 33.5424 19.8769 33.5442 19.8739 33.5467C19.872 33.5442 19.8702 33.5424 19.8689 33.5412C19.8191 33.4772 19.7705 33.3812 19.7791 33.3467C19.8813 32.9418 19.7963 32.7141 19.7939 32.7079C19.7299 32.5141 19.6209 30.8095 19.7114 30.359L19.7323 30.2556C19.792 29.9559 19.8474 29.6852 19.8739 29.3436C19.9022 29.6858 19.9563 29.9559 20.0173 30.2556L20.0369 30.359C20.1274 30.8095 20.0191 32.5141 19.9563 32.7055C19.9533 32.7135 19.8683 32.9412 19.9705 33.3467Z" fill="#388DCA"/>
<path d="M39.4283 39.5839C33.4745 37.8817 28.9662 29.9032 28.9662 20.3082C28.9662 10.7131 33.4745 2.73524 39.4283 1.03186V0.972168C31.6616 2.54448 25.7446 10.5986 25.7446 20.3082C25.7446 30.0165 31.6609 38.0706 39.4277 39.6429V39.5839H39.4283Z" fill="#231F20"/>
<path d="M0.302246 1.03124C6.25609 2.73524 10.7644 10.7131 10.7644 20.3076C10.7644 29.9032 6.25548 37.8817 0.302246 39.5839V39.6429C8.06902 38.0706 13.9853 30.0165 13.9853 20.3076C13.9853 10.5986 8.06902 2.54448 0.302246 0.972168V1.03124V1.03124Z" fill="#231F20"/>
<path d="M51.2094 10.5074H40.4235V15.4649H49.9841V18.4613H40.4235V23.5813H51.346V26.5782H37.0728V7.51172H51.2094V10.5074Z" fill="#388DCA"/>
<path d="M68.8802 26.5781L63.4956 19.2618L58.0803 26.5781H53.9541L61.4169 16.7498L54.247 7.25439H58.4907L63.583 14.183L68.7042 7.25439H72.831L65.6901 16.695L73.1233 26.5787H68.8802V26.5781Z" fill="#388DCA"/>
<path d="M83.7908 20.4489H80.0049V26.5782H76.6548V7.51172H84.1723C88.6123 7.51172 91.4173 10.0176 91.4173 13.9123C91.4173 18.2151 87.9853 20.4489 83.7908 20.4489ZM83.8991 10.5628H80.0043V17.4262H83.8991C86.4326 17.4262 88.0123 16.0373 88.0123 13.9942C88.0129 11.7333 86.4056 10.5628 83.8991 10.5628Z" fill="#388DCA"/>
<path d="M108.987 10.5074H98.2001V15.4649H107.761V18.4613H98.2001V23.5813H109.123V26.5782H94.8506V7.51172H108.987V10.5074Z" fill="#388DCA"/>
<path d="M125.328 26.5782L120.644 19.9314H116.449V26.5782H113.099V7.51172H121.598C125.983 7.51172 128.681 9.8268 128.681 13.5585C128.681 16.7185 126.801 18.6243 124.131 19.3603L129.279 26.5788H125.328V26.5782ZM121.325 10.5628H116.449V16.9628H121.352C123.749 16.9628 125.275 15.7099 125.275 13.7486C125.275 11.652 123.804 10.5628 121.325 10.5628Z" fill="#388DCA"/>
<path d="M140.773 26.5782H137.397V10.6163H131.349V7.51172H146.82V10.6163H140.774V26.5782H140.773Z" fill="#388DCA"/>
<path d="M159.731 21.8922H159.622L153.657 12.9586V26.5777H150.362V7.51123H153.93L159.732 16.5266L165.533 7.51123H169.101V26.5783H165.751V12.9045L159.731 21.8922Z" fill="#231F20"/>
<path d="M185.552 26.5777L180.867 19.9309H176.673V26.5777H173.324V7.51123H181.821C186.207 7.51123 188.903 9.82631 188.903 13.558C188.903 16.718 187.024 18.6238 184.354 19.3598L189.503 26.5783H185.552V26.5777ZM181.548 10.5623H176.673V16.9623H181.576C183.974 16.9623 185.498 15.7094 185.498 13.7482C185.498 11.6515 184.028 10.5623 181.548 10.5623Z" fill="#231F20"/>
<path d="M196.556 7.51123V26.5783H193.206V7.51123H196.556Z" fill="#231F20"/>
<path d="M49.7146 30.02H53.8125L53.7189 30.4736H51.9362L50.8334 35.6508H50.3017L51.4045 30.4736H49.6211L49.7146 30.02Z" fill="black"/>
<path d="M54.6655 33.7344C54.6188 33.9541 54.6028 34.1609 54.6188 34.3572C54.6342 34.5529 54.684 34.7227 54.7671 34.8649C54.8502 35.0089 54.9695 35.1233 55.1228 35.2101C55.2766 35.2956 55.4662 35.3387 55.6902 35.3387C55.9979 35.3387 56.2779 35.2581 56.5308 35.0963C56.7837 34.9344 56.9782 34.7043 57.1135 34.4083H57.6379C57.5382 34.6009 57.4249 34.78 57.2975 34.9436C57.1702 35.1073 57.0225 35.2501 56.8557 35.3738C56.6883 35.4956 56.5006 35.5916 56.292 35.6587C56.084 35.7264 55.8514 35.7609 55.596 35.7609C55.2729 35.7609 55.0059 35.7061 54.7942 35.5966C54.5831 35.4864 54.4219 35.3369 54.3099 35.1461C54.1972 34.956 54.1339 34.7326 54.1179 34.4735C54.1025 34.2156 54.1259 33.9381 54.1886 33.6415C54.2508 33.3436 54.3529 33.0643 54.4932 32.804C54.6342 32.5436 54.8046 32.3153 55.0059 32.1209C55.2065 31.9252 55.4329 31.7707 55.6859 31.6587C55.9382 31.5461 56.2108 31.4907 56.5031 31.4907C57.0612 31.4907 57.4588 31.6833 57.6957 32.0667C57.9332 32.4495 57.9708 33.0058 57.8089 33.735H54.6655V33.7344ZM57.3948 33.3443C57.4366 33.1467 57.4483 32.9596 57.4298 32.7855C57.412 32.6113 57.3634 32.46 57.2852 32.3326C57.2071 32.204 57.0945 32.1024 56.9492 32.0273C56.8028 31.9516 56.6262 31.9141 56.4175 31.9141C56.2089 31.9141 56.0175 31.9529 55.8422 32.0304C55.6674 32.1098 55.5099 32.2138 55.3695 32.3436C55.2286 32.4735 55.1062 32.6249 55.0022 32.7966C54.8982 32.9683 54.8145 33.1516 54.7517 33.3443H57.3948Z" fill="black"/>
<path d="M62.4384 32.8763C62.423 32.5729 62.3319 32.3372 62.1645 32.1686C61.9977 31.9994 61.7577 31.9145 61.4451 31.9145C61.2051 31.9145 60.9885 31.9637 60.7959 32.0628C60.6033 32.1619 60.4334 32.2935 60.2882 32.4579C60.1417 32.6222 60.0217 32.8062 59.9282 33.0123C59.8347 33.2185 59.7639 33.4265 59.7171 33.6351C59.6704 33.8492 59.6507 34.0566 59.6581 34.2603C59.6661 34.464 59.7079 34.6462 59.7836 34.808C59.8593 34.9699 59.9725 35.0991 60.1233 35.1951C60.2747 35.2911 60.4728 35.3397 60.7177 35.3397C61.0673 35.3397 61.3682 35.2431 61.6211 35.0511C61.874 34.8579 62.063 34.5914 62.1879 34.2523H62.6882C62.5996 34.4757 62.4907 34.6806 62.3596 34.8659C62.2297 35.0523 62.0784 35.2111 61.906 35.3428C61.7344 35.4763 61.5411 35.5785 61.3276 35.6517C61.114 35.7249 60.879 35.7619 60.6236 35.7619C60.3005 35.7619 60.0334 35.7071 59.8217 35.5975C59.6107 35.4874 59.4494 35.3379 59.3374 35.1471C59.2248 34.9569 59.1614 34.7317 59.1454 34.4708C59.1294 34.2099 59.1534 33.9311 59.2162 33.6351C59.2734 33.352 59.37 33.0831 59.5054 32.8259C59.6408 32.5674 59.8076 32.3391 60.0057 32.1409C60.2039 31.9422 60.4322 31.7859 60.6901 31.6677C60.9485 31.5502 61.2285 31.4917 61.5313 31.4917C62.0008 31.4917 62.3559 31.6037 62.599 31.8277C62.8414 32.0517 62.9467 32.4019 62.9159 32.8769H62.4384V32.8763Z" fill="black"/>
<path d="M63.9946 35.6518L65.1909 30.021H65.6605L65.2069 32.1644C65.4365 31.9662 65.6648 31.8044 65.8912 31.6801C66.1183 31.5533 66.3725 31.4911 66.6537 31.4911C66.9042 31.4911 67.1275 31.5348 67.3226 31.621C67.5177 31.7065 67.6654 31.8567 67.7645 32.0702C67.8322 32.2161 67.8592 32.365 67.8463 32.5188C67.8334 32.6733 67.8082 32.8339 67.7719 33.0001L67.2088 35.6511H66.7399L67.3029 33.0081C67.3811 32.6425 67.3589 32.3687 67.2365 32.1865C67.114 32.005 66.8654 31.9139 66.49 31.9139C66.3442 31.9139 66.2063 31.9348 66.0759 31.9791C65.946 32.0241 65.8242 32.0825 65.7122 32.1545C65.5995 32.229 65.4992 32.3121 65.4112 32.4056C65.3226 32.4998 65.2494 32.5988 65.1922 32.7022C65.1189 32.8333 65.0642 32.9576 65.0279 33.0776C64.9909 33.1976 64.9571 33.3275 64.9257 33.4696L64.4642 35.6505H63.9946V35.6518Z" fill="black"/>
<path d="M69.4764 35.6513H69.0068L69.8671 31.6003H70.3367L70.2198 32.164C70.4493 31.9658 70.677 31.804 70.9041 31.6796C71.1311 31.5529 71.3853 31.4907 71.6665 31.4907C71.917 31.4907 72.1398 31.5344 72.3354 31.6206C72.5311 31.7061 72.6782 31.8563 72.7773 32.0698C72.845 32.2156 72.8721 32.3646 72.8591 32.5184C72.8462 32.6729 72.821 32.8335 72.7847 32.9996L72.221 35.6507H71.7521L72.3151 33.0076C72.3939 32.6421 72.3711 32.3683 72.2487 32.1861C72.1262 32.0046 71.8776 31.9135 71.5022 31.9135C71.3564 31.9135 71.2185 31.9344 71.0881 31.9787C70.9576 32.0236 70.8364 32.0821 70.7244 32.1541C70.6118 32.2286 70.5114 32.3116 70.4234 32.4052C70.3348 32.4993 70.2616 32.5984 70.2044 32.7018C70.1311 32.8329 70.0764 32.9572 70.0401 33.0772C70.0031 33.1972 69.9693 33.327 69.9379 33.4692L69.4764 35.6513Z" fill="black"/>
<path d="M75.6081 35.7609C75.3472 35.756 75.114 35.7086 74.9085 35.62C74.7023 35.532 74.5331 35.399 74.3995 35.2218C74.2666 35.0452 74.1792 34.8224 74.138 34.5572C74.0961 34.2907 74.1122 33.9806 74.1848 33.6255C74.2475 33.3289 74.3454 33.0513 74.4783 32.7929C74.6112 32.5338 74.7768 32.3092 74.9749 32.1172C75.1731 31.924 75.4008 31.7707 75.6592 31.6587C75.9171 31.5461 76.2026 31.4907 76.5152 31.4907C76.8334 31.4907 77.098 31.5467 77.3097 31.6587C77.5208 31.7707 77.6832 31.9227 77.7983 32.1129C77.9134 32.303 77.9805 32.5276 78.002 32.7886C78.0229 33.0501 78.002 33.3283 77.9392 33.6249C77.8715 33.948 77.7645 34.2409 77.6186 34.5018C77.4734 34.7615 77.298 34.9867 77.0949 35.1744C76.8918 35.3615 76.6635 35.5061 76.4106 35.6083C76.1565 35.7098 75.8894 35.7609 75.6081 35.7609ZM77.4377 33.6255C77.4845 33.3861 77.5054 33.1621 77.5005 32.9529C77.4949 32.7443 77.4549 32.5633 77.3792 32.4095C77.3035 32.2556 77.1885 32.1344 77.0352 32.0458C76.8814 31.9572 76.6789 31.9135 76.4291 31.9135C76.1841 31.9135 75.9638 31.9609 75.7682 32.0581C75.5731 32.1529 75.402 32.2821 75.2555 32.4409C75.1097 32.6003 74.9897 32.7824 74.8962 32.9886C74.8026 33.1947 74.7318 33.4064 74.6851 33.6249C74.6334 33.876 74.6149 34.1055 74.6303 34.3172C74.6463 34.5289 74.6955 34.7092 74.7792 34.8606C74.8623 35.0126 74.9811 35.1295 75.1355 35.2138C75.2894 35.2963 75.4783 35.3381 75.7023 35.3381C75.9472 35.3381 76.1675 35.2895 76.3632 35.1935C76.5589 35.0975 76.7282 34.9683 76.8715 34.8064C77.0149 34.6446 77.1337 34.4624 77.2278 34.2587C77.3208 34.0556 77.3909 33.8446 77.4377 33.6255Z" fill="black"/>
<path d="M79.1035 35.6518L80.2998 30.021H80.7687L79.5724 35.6518H79.1035Z" fill="black"/>
<path d="M83.0217 35.7609C82.7608 35.756 82.5276 35.7086 82.322 35.62C82.1159 35.532 81.9467 35.399 81.8131 35.2218C81.6808 35.0452 81.5928 34.8224 81.5516 34.5572C81.5097 34.2907 81.5257 33.9806 81.5983 33.6255C81.6611 33.3289 81.7583 33.0513 81.8913 32.7929C82.0242 32.5338 82.1897 32.3092 82.3885 32.1172C82.586 31.924 82.8143 31.7707 83.0728 31.6587C83.3307 31.5461 83.6162 31.4907 83.9294 31.4907C84.247 31.4907 84.5122 31.5467 84.7233 31.6587C84.9344 31.7707 85.0974 31.9227 85.2119 32.1129C85.327 32.303 85.3947 32.5276 85.4156 32.7886C85.4365 33.0501 85.4156 33.3283 85.3528 33.6249C85.2851 33.948 85.178 34.2409 85.0322 34.5018C84.8864 34.7615 84.7116 34.9867 84.5085 35.1744C84.3054 35.3615 84.0771 35.5061 83.8242 35.6083C83.57 35.7098 83.303 35.7609 83.0217 35.7609ZM84.8513 33.6255C84.8987 33.3861 84.919 33.1621 84.914 32.9529C84.9085 32.7443 84.8685 32.5633 84.7928 32.4095C84.7165 32.2556 84.6027 32.1344 84.4488 32.0458C84.295 31.9572 84.0925 31.9135 83.8427 31.9135C83.5977 31.9135 83.3774 31.9609 83.1817 32.0581C82.9867 32.1529 82.8156 32.2821 82.6691 32.4409C82.5233 32.6003 82.4033 32.7824 82.3097 32.9886C82.2162 33.1947 82.1454 33.4064 82.0987 33.6249C82.047 33.876 82.0285 34.1055 82.0439 34.3172C82.0599 34.5289 82.1091 34.7092 82.1922 34.8606C82.2759 35.0126 82.3947 35.1295 82.5485 35.2138C82.7023 35.2963 82.8913 35.3381 83.1153 35.3381C83.3602 35.3381 83.5805 35.2895 83.7762 35.1935C83.9719 35.0975 84.1411 34.9683 84.2845 34.8064C84.4279 34.6446 84.5467 34.4624 84.6402 34.2587C84.7343 34.0556 84.8051 33.8446 84.8513 33.6255Z" fill="black"/>
<path d="M90.4354 31.6005H90.9049L90.1308 35.2608C90.0736 35.5322 89.9905 35.7906 89.8846 36.0386C89.7775 36.286 89.6323 36.5039 89.4502 36.6922C89.2674 36.8799 89.0415 37.0294 88.7732 37.1414C88.5049 37.2534 88.1775 37.3094 87.7917 37.3094C87.4945 37.3094 87.2471 37.2719 87.0489 37.1962C86.8508 37.1205 86.6957 37.0251 86.5837 36.9106C86.4711 36.7956 86.396 36.6682 86.3566 36.5316C86.3179 36.3925 86.308 36.2633 86.3295 36.1445H86.8299C86.8299 36.2959 86.8582 36.4196 86.916 36.5162C86.9732 36.6116 87.0502 36.6879 87.1468 36.7426C87.2434 36.798 87.3535 36.835 87.4791 36.8559C87.604 36.8762 87.7375 36.8879 87.8779 36.8879C88.196 36.8879 88.4631 36.8319 88.6797 36.7223C88.8963 36.6134 89.0736 36.4706 89.2114 36.2934C89.3499 36.1156 89.4563 35.9156 89.532 35.6903C89.6071 35.4663 89.6692 35.238 89.7154 35.0036C89.5117 35.2522 89.2643 35.443 88.9726 35.5697C88.6803 35.6983 88.3911 35.7623 88.1043 35.7623C87.7966 35.7623 87.5412 35.7033 87.3376 35.587C87.1345 35.4682 86.9788 35.3119 86.8723 35.1168C86.7652 34.9211 86.7031 34.6934 86.6846 34.4325C86.6662 34.1728 86.6883 33.9002 86.7511 33.619C86.8139 33.3223 86.9068 33.0436 87.0329 32.7833C87.1579 32.5217 87.3142 32.2971 87.5019 32.1057C87.6895 31.9162 87.9099 31.7654 88.1628 31.6565C88.4157 31.547 88.7062 31.4922 89.0348 31.4922C89.1646 31.4922 89.2939 31.5113 89.4219 31.547C89.5499 31.5839 89.6699 31.6362 89.7819 31.7039C89.8939 31.771 89.9929 31.8577 90.0791 31.9617C90.1652 32.0663 90.2286 32.1833 90.2705 32.3137H90.2859L90.4354 31.6005ZM90.0052 33.6423C90.0575 33.3968 90.076 33.1679 90.06 32.9574C90.044 32.7457 89.9948 32.5636 89.9111 32.4097C89.8274 32.2559 89.7105 32.1346 89.5591 32.046C89.4071 31.9574 89.2225 31.9137 89.004 31.9137C88.8059 31.9137 88.6157 31.9488 88.4329 32.019C88.2502 32.0891 88.0822 32.1919 87.9289 32.3279C87.7751 32.4633 87.6415 32.6288 87.5302 32.8251C87.4182 33.0196 87.3332 33.2466 87.276 33.5008C87.2132 33.7568 87.1849 33.995 87.1899 34.2165C87.1948 34.438 87.2385 34.6331 87.3191 34.7993C87.3997 34.966 87.5185 35.0977 87.6748 35.1943C87.8311 35.2903 88.0317 35.339 88.2772 35.339C88.4914 35.339 88.692 35.2928 88.8797 35.2011C89.0674 35.1113 89.2366 34.9888 89.388 34.835C89.5394 34.6799 89.6686 34.5008 89.7751 34.2946C89.8816 34.0891 89.9585 33.8713 90.0052 33.6423Z" fill="black"/>
<path d="M91.6239 36.747C91.6812 36.7575 91.7421 36.7674 91.8073 36.7778C91.8726 36.7895 91.939 36.7938 92.0067 36.7938C92.1366 36.7938 92.2529 36.752 92.3544 36.6689C92.4559 36.5864 92.5464 36.4867 92.6239 36.3704C92.7015 36.2541 92.7735 36.1317 92.8387 36.0049C92.9039 35.8787 92.9679 35.7704 93.0307 35.6824L92.3267 31.6006H92.8504L93.4141 35.0806L95.4479 31.6006H95.9556L93.5938 35.5975C93.4424 35.8517 93.3046 36.0824 93.1796 36.2843C93.0541 36.488 92.9292 36.6609 92.8043 36.8055C92.6793 36.9489 92.5482 37.0584 92.4135 37.1335C92.2775 37.2086 92.1292 37.2474 91.9673 37.2474C91.8843 37.2474 91.8049 37.2418 91.7292 37.232C91.6529 37.2215 91.587 37.208 91.5298 37.1932L91.6239 36.747Z" fill="black"/>
<path d="M101.095 29.2393V37.7869H100.696V29.2393H101.095Z" fill="black"/>
<path d="M106.6 33.9704C106.568 34.2196 106.58 34.4326 106.632 34.6079C106.685 34.7821 106.769 34.9236 106.889 35.0332C107.01 35.1427 107.158 35.2233 107.336 35.2719C107.513 35.3218 107.707 35.3464 107.921 35.3464C108.172 35.3464 108.395 35.3156 108.591 35.2516C108.785 35.1895 108.953 35.1058 109.091 34.9993C109.23 34.8916 109.342 34.7673 109.428 34.6276C109.515 34.4861 109.573 34.3384 109.603 34.1821C109.651 33.963 109.64 33.7846 109.569 33.6504C109.497 33.5132 109.391 33.403 109.248 33.3175C109.104 33.2313 108.936 33.1624 108.744 33.1101C108.55 33.0584 108.352 33.0073 108.149 32.9575C107.945 32.9076 107.747 32.8492 107.555 32.7821C107.361 32.7144 107.197 32.6227 107.062 32.5089C106.926 32.3938 106.828 32.2461 106.768 32.067C106.708 31.8861 106.707 31.6584 106.764 31.3821C106.806 31.1895 106.886 31.0012 107.007 30.8196C107.126 30.6363 107.281 30.4744 107.468 30.3347C107.657 30.1932 107.88 30.0812 108.136 29.9981C108.395 29.9144 108.68 29.8726 108.993 29.8726C109.312 29.8726 109.579 29.9169 109.795 30.0061C110.012 30.0947 110.182 30.2166 110.307 30.3686C110.433 30.5236 110.513 30.7027 110.55 30.9052C110.586 31.1089 110.579 31.3255 110.526 31.5538H110.019C110.065 31.3403 110.067 31.1556 110.022 30.9993C109.978 30.843 109.904 30.7156 109.8 30.6166C109.695 30.5175 109.564 30.4449 109.405 30.3975C109.246 30.3513 109.078 30.3279 108.899 30.3279C108.629 30.3279 108.393 30.3655 108.192 30.4412C107.993 30.5169 107.824 30.6141 107.689 30.7347C107.553 30.8541 107.449 30.9876 107.375 31.1341C107.303 31.2787 107.263 31.4258 107.259 31.5716C107.248 31.7538 107.289 31.9003 107.379 32.0098C107.471 32.1199 107.592 32.2079 107.743 32.2793C107.895 32.3489 108.067 32.4067 108.261 32.451C108.453 32.4953 108.649 32.5409 108.846 32.5913C109.045 32.6412 109.234 32.6996 109.417 32.7679C109.6 32.8356 109.753 32.9273 109.878 33.0418C110.004 33.1563 110.093 33.3021 110.147 33.4836C110.203 33.6633 110.201 33.8879 110.144 34.1593C110.034 34.6812 109.768 35.0849 109.347 35.3729C108.924 35.659 108.387 35.8018 107.735 35.8018C107.444 35.8018 107.181 35.7643 106.945 35.6879C106.711 35.6129 106.521 35.4978 106.371 35.3439C106.222 35.1901 106.122 35.0006 106.069 34.7735C106.017 34.5458 106.022 34.2793 106.086 33.9716H106.6V33.9704Z" fill="black"/>
<path d="M114.851 32.8763C114.834 32.5729 114.743 32.3372 114.577 32.1686C114.41 31.9994 114.17 31.9145 113.857 31.9145C113.617 31.9145 113.401 31.9637 113.208 32.0628C113.015 32.1619 112.846 32.2935 112.699 32.4579C112.554 32.6222 112.433 32.8062 112.341 33.0123C112.246 33.2185 112.176 33.4265 112.13 33.6351C112.082 33.8492 112.062 34.0566 112.07 34.2603C112.078 34.464 112.119 34.6462 112.195 34.808C112.27 34.9699 112.384 35.0991 112.535 35.1951C112.686 35.2911 112.885 35.3397 113.13 35.3397C113.478 35.3397 113.78 35.2431 114.034 35.0511C114.286 34.8579 114.475 34.5914 114.6 34.2523H115.1C115.012 34.4757 114.903 34.6806 114.771 34.8659C114.642 35.0523 114.491 35.2111 114.319 35.3428C114.147 35.4763 113.954 35.5785 113.74 35.6517C113.526 35.7249 113.291 35.7619 113.035 35.7619C112.713 35.7619 112.445 35.7071 112.235 35.5975C112.023 35.4874 111.862 35.3379 111.75 35.1471C111.637 34.9569 111.573 34.7317 111.558 34.4708C111.542 34.2099 111.565 33.9311 111.627 33.6351C111.685 33.352 111.782 33.0831 111.918 32.8259C112.053 32.5674 112.219 32.3391 112.418 32.1409C112.616 31.9422 112.845 31.7859 113.103 31.6677C113.36 31.5502 113.64 31.4917 113.943 31.4917C114.413 31.4917 114.768 31.6037 115.011 31.8277C115.253 32.0517 115.358 32.4019 115.328 32.8769H114.851V32.8763Z" fill="black"/>
<path d="M116.477 35.6514L117.337 31.6003H117.806L116.947 35.6514H116.477ZM117.501 30.7172L117.651 30.02H118.166L118.017 30.7172H117.501Z" fill="black"/>
<path d="M119.503 33.7344C119.457 33.9541 119.441 34.1609 119.457 34.3572C119.472 34.5529 119.521 34.7227 119.606 34.8649C119.688 35.0089 119.807 35.1233 119.961 35.2101C120.115 35.2956 120.305 35.3387 120.528 35.3387C120.835 35.3387 121.116 35.2581 121.369 35.0963C121.621 34.9344 121.815 34.7043 121.952 34.4083H122.476C122.376 34.6009 122.263 34.78 122.135 34.9436C122.007 35.1073 121.86 35.2501 121.692 35.3738C121.526 35.4956 121.339 35.5916 121.13 35.6587C120.921 35.7264 120.689 35.7609 120.433 35.7609C120.111 35.7609 119.843 35.7061 119.632 35.5966C119.42 35.4864 119.259 35.3369 119.147 35.1461C119.034 34.956 118.971 34.7326 118.956 34.4735C118.94 34.2156 118.963 33.9381 119.026 33.6415C119.088 33.3436 119.19 33.0643 119.331 32.804C119.471 32.5436 119.641 32.3153 119.842 32.1209C120.043 31.9252 120.27 31.7707 120.523 31.6587C120.776 31.5461 121.047 31.4907 121.34 31.4907C121.898 31.4907 122.295 31.6833 122.533 32.0667C122.769 32.4495 122.807 33.0058 122.646 33.735H119.503V33.7344ZM122.233 33.3443C122.275 33.1467 122.286 32.9596 122.269 32.7855C122.25 32.6113 122.203 32.46 122.124 32.3326C122.046 32.204 121.934 32.1024 121.788 32.0273C121.641 31.9516 121.465 31.9141 121.256 31.9141C121.047 31.9141 120.856 31.9529 120.681 32.0304C120.506 32.1098 120.348 32.2138 120.208 32.3436C120.067 32.4735 119.944 32.6249 119.84 32.7966C119.736 32.9683 119.652 33.1516 119.591 33.3443H122.233Z" fill="black"/>
<path d="M124.29 35.6513H123.82L124.681 31.6003H125.15L125.032 32.164C125.263 31.9658 125.49 31.804 125.716 31.6796C125.943 31.5529 126.198 31.4907 126.479 31.4907C126.729 31.4907 126.953 31.5344 127.147 31.6206C127.343 31.7061 127.491 31.8563 127.59 32.0698C127.657 32.2156 127.684 32.3646 127.671 32.5184C127.658 32.6729 127.633 32.8335 127.598 32.9996L127.034 35.6507H126.566L127.128 33.0076C127.206 32.6421 127.185 32.3683 127.062 32.1861C126.94 32.0046 126.69 31.9135 126.315 31.9135C126.169 31.9135 126.031 31.9344 125.9 31.9787C125.77 32.0236 125.65 32.0821 125.537 32.1541C125.425 32.2286 125.324 32.3116 125.236 32.4052C125.146 32.4993 125.074 32.5984 125.017 32.7018C124.945 32.8329 124.89 32.9572 124.853 33.0772C124.815 33.1972 124.783 33.327 124.751 33.4692L124.29 35.6513Z" fill="black"/>
<path d="M132.29 32.8763C132.275 32.5729 132.183 32.3372 132.017 32.1686C131.85 31.9994 131.611 31.9145 131.298 31.9145C131.058 31.9145 130.842 31.9637 130.648 32.0628C130.454 32.1619 130.285 32.2935 130.141 32.4579C129.994 32.6222 129.874 32.8062 129.78 33.0123C129.686 33.2185 129.616 33.4265 129.569 33.6351C129.522 33.8492 129.503 34.0566 129.51 34.2603C129.518 34.464 129.56 34.6462 129.635 34.808C129.711 34.9699 129.824 35.0991 129.976 35.1951C130.126 35.2911 130.325 35.3397 130.57 35.3397C130.919 35.3397 131.22 35.2431 131.473 35.0511C131.726 34.8579 131.915 34.5914 132.041 34.2523H132.541C132.452 34.4757 132.342 34.6806 132.213 34.8659C132.082 35.0523 131.931 35.2111 131.758 35.3428C131.587 35.4763 131.395 35.5785 131.181 35.6517C130.968 35.7249 130.733 35.7619 130.477 35.7619C130.154 35.7619 129.886 35.7071 129.675 35.5975C129.464 35.4874 129.302 35.3379 129.19 35.1471C129.078 34.9569 129.014 34.7317 128.998 34.4708C128.982 34.2099 129.006 33.9311 129.069 33.6351C129.126 33.352 129.222 33.0831 129.358 32.8259C129.494 32.5674 129.661 32.3391 129.858 32.1409C130.057 31.9422 130.285 31.7859 130.543 31.6677C130.802 31.5495 131.082 31.4917 131.384 31.4917C131.853 31.4917 132.209 31.6037 132.451 31.8277C132.694 32.0517 132.799 32.4019 132.768 32.8769H132.29V32.8763Z" fill="black"/>
<path d="M134.542 33.7344C134.496 33.9541 134.479 34.1609 134.496 34.3572C134.511 34.5529 134.561 34.7227 134.644 34.8649C134.728 35.0089 134.846 35.1233 135 35.2101C135.154 35.2956 135.343 35.3387 135.567 35.3387C135.874 35.3387 136.154 35.2581 136.408 35.0963C136.659 34.9344 136.855 34.7043 136.991 34.4083H137.514C137.415 34.6009 137.301 34.78 137.174 34.9436C137.045 35.108 136.899 35.2501 136.732 35.3738C136.565 35.4956 136.377 35.5916 136.168 35.6587C135.961 35.7264 135.728 35.7609 135.473 35.7609C135.15 35.7609 134.882 35.7061 134.671 35.5966C134.46 35.4864 134.298 35.3369 134.186 35.1461C134.074 34.956 134.011 34.7326 133.994 34.4735C133.979 34.2156 134.002 33.9381 134.065 33.6415C134.127 33.3436 134.229 33.0643 134.369 32.804C134.51 32.5436 134.68 32.3153 134.882 32.1209C135.082 31.9252 135.309 31.7707 135.562 31.6587C135.815 31.5461 136.087 31.4907 136.379 31.4907C136.937 31.4907 137.335 31.6833 137.571 32.0667C137.81 32.4495 137.846 33.0058 137.685 33.735H134.542V33.7344ZM137.272 33.3443C137.312 33.1467 137.325 32.9596 137.306 32.7855C137.288 32.6113 137.24 32.46 137.163 32.3326C137.083 32.204 136.971 32.1024 136.825 32.0273C136.68 31.9516 136.502 31.9141 136.295 31.9141C136.086 31.9141 135.894 31.9529 135.719 32.0304C135.545 32.1098 135.387 32.2138 135.245 32.3436C135.105 32.4735 134.983 32.6249 134.879 32.7966C134.774 32.9683 134.69 33.1516 134.628 33.3443H137.272Z" fill="black"/>
<path d="M143.488 29.2393V37.7869H143.09V29.2393H143.488Z" fill="black"/>
<path d="M148.416 35.6518L149.612 30.021H153.358L153.264 30.4745H150.05L149.612 32.509H152.513L152.42 32.9613H149.518L149.041 35.1982H152.334L152.24 35.6518H148.416Z" fill="black"/>
<path d="M154.218 31.6006H154.727L155.305 35.0732L157.354 31.6006H157.863L155.43 35.6517H154.907L154.218 31.6006Z" fill="black"/>
<path d="M158.434 35.6514L159.293 31.6003H159.763L158.903 35.6514H158.434ZM159.458 30.7172L159.607 30.02H160.123L159.975 30.7172H159.458Z" fill="black"/>
<path d="M165.089 30.02H165.558L164.361 35.6508H163.893L164.04 34.94H164.025C163.931 35.0748 163.818 35.1936 163.689 35.2951C163.559 35.3972 163.423 35.4822 163.282 35.5499C163.142 35.6169 162.999 35.6686 162.857 35.7062C162.713 35.7419 162.576 35.7609 162.446 35.7609C162.118 35.7609 161.849 35.7062 161.639 35.5966C161.431 35.4865 161.274 35.3369 161.171 35.1462C161.066 34.956 161.009 34.7308 160.994 34.4699C160.982 34.2089 161.007 33.9302 161.07 33.6342C161.132 33.3511 161.226 33.0809 161.351 32.8206C161.475 32.5597 161.633 32.332 161.824 32.1357C162.014 31.94 162.236 31.7849 162.489 31.6668C162.741 31.5492 163.022 31.4908 163.329 31.4908C163.617 31.4908 163.878 31.5548 164.116 31.6834C164.352 31.8108 164.518 32.0003 164.612 32.2502L165.089 30.02ZM164.322 33.6102C164.369 33.3806 164.383 33.1628 164.364 32.9566C164.346 32.7505 164.295 32.5708 164.212 32.4169C164.129 32.2631 164.013 32.1406 163.864 32.0489C163.715 31.9585 163.535 31.9129 163.321 31.9129C163.076 31.9129 162.854 31.9603 162.656 32.0576C162.457 32.1523 162.283 32.2852 162.132 32.452C161.98 32.6188 161.855 32.8139 161.756 33.0354C161.658 33.2563 161.587 33.4939 161.546 33.7505C161.494 34.0046 161.481 34.2317 161.51 34.4268C161.538 34.6225 161.601 34.788 161.694 34.9228C161.788 35.0594 161.911 35.1628 162.065 35.2329C162.219 35.3019 162.395 35.3382 162.593 35.3382C162.812 35.3382 163.017 35.2932 163.207 35.2059C163.398 35.116 163.567 34.9954 163.714 34.8416C163.863 34.6871 163.989 34.5049 164.09 34.2939C164.193 34.0834 164.27 33.8563 164.322 33.6102Z" fill="black"/>
<path d="M166.902 33.7344C166.857 33.9541 166.84 34.1609 166.857 34.3572C166.872 34.5529 166.921 34.7227 167.005 34.8649C167.088 35.0089 167.207 35.1233 167.361 35.2101C167.515 35.2956 167.704 35.3387 167.928 35.3387C168.236 35.3387 168.515 35.2581 168.769 35.0963C169.021 34.9344 169.216 34.7043 169.352 34.4083H169.875C169.776 34.6009 169.662 34.78 169.535 34.9436C169.406 35.108 169.26 35.2501 169.093 35.3738C168.926 35.4956 168.738 35.5916 168.529 35.6587C168.321 35.7264 168.088 35.7609 167.834 35.7609C167.511 35.7609 167.244 35.7061 167.032 35.5966C166.821 35.4864 166.659 35.3369 166.547 35.1461C166.435 34.956 166.371 34.7326 166.355 34.4735C166.339 34.2156 166.363 33.9381 166.426 33.6415C166.489 33.3436 166.59 33.0643 166.73 32.804C166.871 32.5436 167.042 32.3153 167.243 32.1209C167.443 31.9252 167.671 31.7707 167.923 31.6587C168.176 31.5461 168.449 31.4907 168.74 31.4907C169.299 31.4907 169.696 31.6833 169.933 32.0667C170.171 32.4495 170.207 33.0058 170.046 33.735H166.902V33.7344ZM169.632 33.3443C169.673 33.1467 169.686 32.9596 169.667 32.7855C169.649 32.6113 169.601 32.46 169.524 32.3326C169.445 32.204 169.333 32.1024 169.187 32.0273C169.041 31.9516 168.863 31.9141 168.656 31.9141C168.446 31.9141 168.256 31.9529 168.08 32.0304C167.905 32.1098 167.748 32.2138 167.606 32.3436C167.466 32.4735 167.344 32.6249 167.24 32.7966C167.135 32.9683 167.051 33.1516 166.989 33.3443H169.632Z" fill="black"/>
<path d="M171.689 35.6513H171.22L172.079 31.6003H172.549L172.431 32.164C172.661 31.9658 172.889 31.804 173.116 31.6796C173.342 31.5529 173.596 31.4907 173.879 31.4907C174.127 31.4907 174.351 31.5344 174.547 31.6206C174.741 31.7061 174.889 31.8563 174.989 32.0698C175.056 32.2156 175.084 32.3646 175.072 32.5184C175.058 32.6729 175.033 32.8335 174.996 32.9996L174.434 35.6507H173.964L174.527 33.0076C174.606 32.6421 174.583 32.3683 174.461 32.1861C174.339 32.0046 174.089 31.9135 173.715 31.9135C173.569 31.9135 173.43 31.9344 173.3 31.9787C173.168 32.0236 173.048 32.0821 172.936 32.1541C172.823 32.2286 172.723 32.3116 172.635 32.4052C172.547 32.4993 172.473 32.5984 172.417 32.7018C172.343 32.8329 172.288 32.9572 172.252 33.0772C172.215 33.1972 172.181 33.327 172.151 33.4692L171.689 35.6513Z" fill="black"/>
<path d="M179.69 32.8763C179.673 32.5729 179.583 32.3372 179.416 32.1686C179.249 31.9994 179.009 31.9145 178.696 31.9145C178.456 31.9145 178.24 31.9637 178.048 32.0628C177.854 32.1619 177.684 32.2935 177.539 32.4579C177.393 32.6222 177.272 32.8062 177.18 33.0123C177.086 33.2185 177.016 33.4265 176.968 33.6351C176.921 33.8492 176.901 34.0566 176.91 34.2603C176.917 34.464 176.958 34.6462 177.035 34.808C177.109 34.9699 177.223 35.0991 177.374 35.1951C177.526 35.2911 177.724 35.3397 177.969 35.3397C178.317 35.3397 178.619 35.2431 178.873 35.0511C179.124 34.8579 179.315 34.5914 179.439 34.2523H179.939C179.851 34.4757 179.742 34.6806 179.611 34.8659C179.481 35.0523 179.329 35.2111 179.158 35.3428C178.987 35.4763 178.792 35.5785 178.579 35.6517C178.365 35.7249 178.131 35.7619 177.875 35.7619C177.551 35.7619 177.284 35.7071 177.074 35.5975C176.862 35.4874 176.701 35.3379 176.589 35.1471C176.476 34.9569 176.412 34.7317 176.396 34.4708C176.382 34.2099 176.404 33.9311 176.466 33.6351C176.524 33.352 176.62 33.0831 176.757 32.8259C176.892 32.5674 177.058 32.3391 177.257 32.1409C177.456 31.9422 177.683 31.7859 177.942 31.6677C178.2 31.5502 178.479 31.4917 178.782 31.4917C179.252 31.4917 179.606 31.6037 179.849 31.8277C180.092 32.0517 180.196 32.4019 180.167 32.8769H179.69V32.8763Z" fill="black"/>
<path d="M181.941 33.7344C181.895 33.9541 181.879 34.1609 181.895 34.3572C181.91 34.5529 181.959 34.7227 182.043 34.8649C182.126 35.0089 182.245 35.1233 182.399 35.2101C182.552 35.2956 182.742 35.3387 182.966 35.3387C183.273 35.3387 183.554 35.2581 183.806 35.0963C184.059 34.9344 184.253 34.7043 184.389 34.4083H184.914C184.815 34.6009 184.701 34.78 184.572 34.9436C184.445 35.108 184.297 35.2501 184.13 35.3738C183.963 35.4956 183.777 35.5916 183.568 35.6587C183.359 35.7264 183.127 35.7609 182.872 35.7609C182.548 35.7609 182.281 35.7061 182.069 35.5966C181.858 35.4864 181.697 35.3369 181.584 35.1461C181.472 34.956 181.409 34.7326 181.393 34.4735C181.378 34.2156 181.401 33.9381 181.463 33.6415C181.526 33.3436 181.627 33.0643 181.768 32.804C181.909 32.5436 182.079 32.3153 182.28 32.1209C182.482 31.9252 182.708 31.7707 182.961 31.6587C183.213 31.5461 183.486 31.4907 183.778 31.4907C184.335 31.4907 184.733 31.6833 184.971 32.0667C185.208 32.4495 185.245 33.0058 185.085 33.735H181.941V33.7344ZM184.671 33.3443C184.712 33.1467 184.724 32.9596 184.706 32.7855C184.688 32.6113 184.641 32.46 184.562 32.3326C184.484 32.204 184.372 32.1024 184.226 32.0273C184.079 31.9516 183.903 31.9141 183.693 31.9141C183.485 31.9141 183.295 31.9529 183.119 32.0304C182.944 32.1098 182.786 32.2138 182.646 32.3436C182.504 32.4735 182.382 32.6249 182.278 32.7966C182.173 32.9683 182.09 33.1516 182.028 33.3443H184.671Z" fill="black"/>
</g>
<defs>
<clipPath id="clip0_1510_1019">
<rect width="196.923" height="40" fill="white"/>
</clipPath>
</defs>
</svg>
