<svg width="18" height="19" viewBox="0 0 18 19" fill="none" xmlns="http://www.w3.org/2000/svg">
<path d="M5.50293 7.24996C5.6032 6.35358 5.91166 5.49305 6.40368 4.73709C6.8957 3.98112 7.55765 3.35067 8.33668 2.89605C9.11571 2.44144 9.99024 2.17527 10.8905 2.11878C11.7907 2.06229 12.6916 2.21706 13.5214 2.57072C14.3511 2.92439 15.0867 3.46715 15.6693 4.15568C16.252 4.84421 16.6656 5.65943 16.8771 6.53625C17.0887 7.41307 17.0923 8.32721 16.8877 9.20567C16.683 10.0841 16.2759 10.9026 15.6986 11.5957" stroke="#3F3F46" stroke-linecap="round" stroke-linejoin="round"/>
<path d="M11.25 5.32129V7.89272H13.1786" stroke="#3F3F46" stroke-linecap="round" stroke-linejoin="round"/>
<path d="M0.964355 10.4644H6.10721C6.52932 10.4644 6.94729 10.5475 7.33727 10.709C7.72724 10.8706 8.08158 11.1073 8.38006 11.4058C8.67853 11.7043 8.91529 12.0586 9.07683 12.4486C9.23836 12.8386 9.3215 13.2565 9.3215 13.6786V13.6786" stroke="#3F3F46" stroke-linecap="round" stroke-linejoin="round"/>
<path d="M5.46436 13.6785H11.8929C12.5749 13.6785 13.229 13.9494 13.7112 14.4316C14.1934 14.9139 14.4644 15.5679 14.4644 16.2499C14.4644 16.4204 14.3966 16.5839 14.2761 16.7045C14.1555 16.825 13.992 16.8928 13.8215 16.8928H0.964355" stroke="#3F3F46" stroke-linecap="round" stroke-linejoin="round"/>
</svg>
