<svg width="12" height="18" viewBox="0 0 12 18" fill="none" xmlns="http://www.w3.org/2000/svg">
<path d="M11.7086 6.42878C11.7086 9.63021 5.92292 17.3574 5.92292 17.3574C5.92292 17.3574 0.137207 9.63021 0.137207 6.42878C0.137207 4.89431 0.746772 3.42269 1.8318 2.33766C2.91684 1.25263 4.38845 0.643066 5.92292 0.643066C7.45739 0.643066 8.92901 1.25263 10.014 2.33766C11.0991 3.42269 11.7086 4.89431 11.7086 6.42878V6.42878Z" fill="#3F3F46"/>
<path d="M5.92271 8.35714C6.98783 8.35714 7.85128 7.49369 7.85128 6.42857C7.85128 5.36345 6.98783 4.5 5.92271 4.5C4.85759 4.5 3.99414 5.36345 3.99414 6.42857C3.99414 7.49369 4.85759 8.35714 5.92271 8.35714Z" fill="#FDF4FF"/>
</svg>
