<svg width="24" height="24" viewBox="0 0 24 24" fill="none" xmlns="http://www.w3.org/2000/svg">
<path d="M11.9999 7.71429C13.8934 7.71429 15.4284 6.17927 15.4284 4.28572C15.4284 2.39217 13.8934 0.857147 11.9999 0.857147C10.1063 0.857147 8.57129 2.39217 8.57129 4.28572C8.57129 6.17927 10.1063 7.71429 11.9999 7.71429Z" stroke="#3F3F46" stroke-width="1.5" stroke-linecap="round" stroke-linejoin="round"/>
<path d="M18 13.7143C18 12.123 17.3679 10.5969 16.2426 9.47165C15.1174 8.34644 13.5913 7.71429 12 7.71429C10.4087 7.71429 8.88258 8.34644 7.75736 9.47165C6.63214 10.5969 6 12.123 6 13.7143V16.2857H8.57143L9.42857 23.1429H14.5714L15.4286 16.2857H18V13.7143Z" stroke="#3F3F46" stroke-width="1.5" stroke-linecap="round" stroke-linejoin="round"/>
</svg>
