<svg width="18" height="19" viewBox="0 0 18 19" fill="none" xmlns="http://www.w3.org/2000/svg">
<g clip-path="url(#clip0_1510_1095)">
<path d="M0.643066 11.4285H3.21449C4.06698 11.4285 4.88454 11.7671 5.48734 12.3699C6.09013 12.9727 6.42878 13.7903 6.42878 14.6428" stroke="#3F3F46" stroke-linecap="round" stroke-linejoin="round"/>
<path d="M2.57164 14.6428H9.00021C9.68219 14.6428 10.3362 14.9137 10.8185 15.396C11.3007 15.8782 11.5716 16.5323 11.5716 17.2143C11.5716 17.3847 11.5039 17.5483 11.3833 17.6688C11.2628 17.7894 11.0993 17.8571 10.9288 17.8571H0.643066" stroke="#3F3F46" stroke-linecap="round" stroke-linejoin="round"/>
<path d="M11.25 11.4285L6.10715 6.67136C3.3043 3.85565 7.39287 -1.59578 11.25 2.81422C15.1072 -1.58292 19.2343 3.86851 16.3929 6.67136L11.25 11.4285Z" stroke="#3F3F46" stroke-linecap="round" stroke-linejoin="round"/>
</g>
<defs>
<clipPath id="clip0_1510_1095">
<rect width="18" height="18" fill="white" transform="translate(0 0.5)"/>
</clipPath>
</defs>
</svg>
