<svg width="64" height="64" viewBox="0 0 64 64" fill="none" xmlns="http://www.w3.org/2000/svg">
<path d="M15.9434 55.2C13.3381 55.2 11.0726 54.5143 9.1469 53.1428C7.22124 51.6571 5.74867 49.6571 4.7292 47.1428C3.70974 44.6285 3.2 41.7714 3.2 38.5714C3.2 34.6857 3.82301 30.9714 5.06903 27.4285C6.42832 23.7714 8.46726 20.4 11.1858 17.3143C13.9044 14.2285 17.4159 11.6571 21.7204 9.59998L28.8566 16.2857C25.7982 17.3143 23.0796 18.7428 20.7009 20.5714C18.4354 22.4 16.5664 24.4571 15.0938 26.7428C13.7345 29.0285 12.7717 31.3714 12.2053 33.7714L12.885 34.1143C13.3381 33.7714 13.9044 33.4857 14.5841 33.2571C15.2637 33.0285 16.2832 32.9143 17.6425 32.9143C19.0018 32.9143 20.4177 33.3143 21.8903 34.1143C23.3628 34.9143 24.5522 36.1143 25.4584 37.7143C26.4779 39.2 26.9876 41.2 26.9876 43.7143C26.9876 45.7714 26.4779 47.6571 25.4584 49.3714C24.5522 51.0857 23.2496 52.5143 21.5504 53.6571C19.8513 54.6857 17.9823 55.2 15.9434 55.2ZM47.8867 55.2C45.2814 55.2 43.0159 54.5143 41.0903 53.1428C39.1646 51.6571 37.692 49.6571 36.6726 47.1428C35.6531 44.6285 35.1434 41.7714 35.1434 38.5714C35.1434 34.6857 35.7664 30.9714 37.0124 27.4285C38.3717 23.7714 40.4106 20.4 43.1292 17.3143C45.8478 14.2285 49.3593 11.6571 53.6637 9.59998L60.8 16.2857C57.7416 17.3143 55.023 18.7428 52.6442 20.5714C50.3788 22.4 48.5097 24.4571 47.0372 26.7428C45.6779 29.0285 44.715 31.3714 44.1487 33.7714L44.8283 34.1143C45.2814 33.7714 45.8478 33.4857 46.5274 33.2571C47.2071 33.0285 48.2265 32.9143 49.5858 32.9143C50.9451 32.9143 52.3611 33.3143 53.8336 34.1143C55.3062 34.9143 56.4956 36.1143 57.4018 37.7143C58.4212 39.2 58.931 41.2 58.931 43.7143C58.931 45.7714 58.4212 47.6571 57.4018 49.3714C56.4956 51.0857 55.1929 52.5143 53.4938 53.6571C51.7947 54.6857 49.9257 55.2 47.8867 55.2Z" fill="#3F3F46"/>
</svg>
